<mxfile host="Electron" modified="2024-01-05T22:08:49.663Z" agent="Mozilla/5.0 (X11; Linux x86_64) AppleWebKit/537.36 (KHTML, like Gecko) draw.io/22.1.16 Chrome/120.0.6099.109 Electron/28.1.0 Safari/537.36" etag="hwue2QrrsmxYOJ3lKhTz" version="22.1.16" type="device">
  <diagram name="Page-1" id="e3a06f82-3646-2815-327d-82caf3d4e204">
    <mxGraphModel dx="1195" dy="1942" grid="1" gridSize="10" guides="1" tooltips="1" connect="1" arrows="1" fold="1" page="1" pageScale="1.5" pageWidth="1169" pageHeight="826" background="none" math="0" shadow="0">
      <root>
        <mxCell id="0" style=";html=1;" />
        <mxCell id="1" style=";html=1;" parent="0" />
        <mxCell id="MVkLaRBLVFbIjyl2gR7S-62" value="" style="rounded=0;whiteSpace=wrap;html=1;fillColor=#dae8fc;strokeColor=#6c8ebf;" vertex="1" parent="1">
          <mxGeometry x="660.88" y="-220" width="183.24" height="310" as="geometry" />
        </mxCell>
        <mxCell id="MVkLaRBLVFbIjyl2gR7S-61" value="" style="rounded=0;whiteSpace=wrap;html=1;fillColor=#dae8fc;strokeColor=#6c8ebf;" vertex="1" parent="1">
          <mxGeometry x="446.76" y="-220" width="183.24" height="310" as="geometry" />
        </mxCell>
        <mxCell id="MVkLaRBLVFbIjyl2gR7S-59" value="" style="rounded=0;whiteSpace=wrap;html=1;fillColor=#d5e8d4;strokeColor=#82b366;" vertex="1" parent="1">
          <mxGeometry x="446.76" y="192.13" width="250" height="210" as="geometry" />
        </mxCell>
        <mxCell id="MVkLaRBLVFbIjyl2gR7S-58" value="" style="rounded=0;whiteSpace=wrap;html=1;fillColor=#fff2cc;strokeColor=#d6b656;" vertex="1" parent="1">
          <mxGeometry x="80" y="8.25" width="320" height="260" as="geometry" />
        </mxCell>
        <mxCell id="6a7d8f32e03d9370-2" value="&lt;font style=&quot;font-size: 12px;&quot;&gt;HTTP Client&lt;/font&gt;" style="verticalLabelPosition=bottom;aspect=fixed;html=1;verticalAlign=top;strokeColor=none;shape=mxgraph.citrix.laptop_2;fillColor=#66B2FF;gradientColor=#0066CC;fontSize=14;" parent="1" vertex="1">
          <mxGeometry x="889.9999999999999" y="88.88" width="116" height="86.5" as="geometry" />
        </mxCell>
        <mxCell id="6a7d8f32e03d9370-15" value="&lt;font style=&quot;font-size: 12px;&quot;&gt;Raspberry&lt;br&gt;Web Server&lt;/font&gt;" style="verticalLabelPosition=top;aspect=fixed;html=1;verticalAlign=bottom;strokeColor=none;shape=mxgraph.citrix.cache_server;fillColor=#66B2FF;gradientColor=#0066CC;fontSize=14;labelPosition=center;align=center;" parent="1" vertex="1">
          <mxGeometry x="799" y="220" width="71" height="97.5" as="geometry" />
        </mxCell>
        <mxCell id="8rnjgaEv8BhWz-kio5fb-2" value="ESP32&lt;br&gt;Control Unit" style="verticalLabelPosition=bottom;sketch=0;aspect=fixed;html=1;verticalAlign=top;strokeColor=none;align=center;outlineConnect=0;shape=mxgraph.citrix.tower_server;" parent="1" vertex="1">
          <mxGeometry x="481.76" y="242.13" width="65" height="85" as="geometry" />
        </mxCell>
        <mxCell id="MVkLaRBLVFbIjyl2gR7S-29" style="edgeStyle=orthogonalEdgeStyle;rounded=0;orthogonalLoop=1;jettySize=auto;html=1;endArrow=none;endFill=0;" edge="1" parent="1" source="MVkLaRBLVFbIjyl2gR7S-1" target="MVkLaRBLVFbIjyl2gR7S-12">
          <mxGeometry relative="1" as="geometry" />
        </mxCell>
        <mxCell id="MVkLaRBLVFbIjyl2gR7S-30" style="edgeStyle=orthogonalEdgeStyle;rounded=0;orthogonalLoop=1;jettySize=auto;html=1;endArrow=none;endFill=0;" edge="1" parent="1" source="MVkLaRBLVFbIjyl2gR7S-1" target="MVkLaRBLVFbIjyl2gR7S-21">
          <mxGeometry relative="1" as="geometry" />
        </mxCell>
        <mxCell id="MVkLaRBLVFbIjyl2gR7S-31" style="edgeStyle=orthogonalEdgeStyle;rounded=0;orthogonalLoop=1;jettySize=auto;html=1;endArrow=none;endFill=0;" edge="1" parent="1" source="MVkLaRBLVFbIjyl2gR7S-1" target="MVkLaRBLVFbIjyl2gR7S-24">
          <mxGeometry relative="1" as="geometry" />
        </mxCell>
        <mxCell id="MVkLaRBLVFbIjyl2gR7S-1" value="ESP32&lt;br&gt;Sensor Simulator" style="verticalLabelPosition=bottom;sketch=0;aspect=fixed;html=1;verticalAlign=top;strokeColor=none;align=center;outlineConnect=0;shape=mxgraph.citrix.tower_server;" vertex="1" parent="1">
          <mxGeometry x="515" y="-40" width="65" height="85" as="geometry" />
        </mxCell>
        <mxCell id="MVkLaRBLVFbIjyl2gR7S-41" style="edgeStyle=orthogonalEdgeStyle;rounded=0;orthogonalLoop=1;jettySize=auto;html=1;endArrow=none;endFill=0;" edge="1" parent="1" source="MVkLaRBLVFbIjyl2gR7S-2" target="MVkLaRBLVFbIjyl2gR7S-32">
          <mxGeometry relative="1" as="geometry" />
        </mxCell>
        <mxCell id="MVkLaRBLVFbIjyl2gR7S-43" style="edgeStyle=orthogonalEdgeStyle;rounded=0;orthogonalLoop=1;jettySize=auto;html=1;endArrow=none;endFill=0;" edge="1" parent="1" source="MVkLaRBLVFbIjyl2gR7S-2" target="MVkLaRBLVFbIjyl2gR7S-35">
          <mxGeometry relative="1" as="geometry" />
        </mxCell>
        <mxCell id="MVkLaRBLVFbIjyl2gR7S-2" value="ESP32&lt;br&gt;Sensor Simulator" style="verticalLabelPosition=bottom;sketch=0;aspect=fixed;html=1;verticalAlign=top;strokeColor=none;align=center;outlineConnect=0;shape=mxgraph.citrix.tower_server;" vertex="1" parent="1">
          <mxGeometry x="720" y="-40" width="65" height="85" as="geometry" />
        </mxCell>
        <mxCell id="MVkLaRBLVFbIjyl2gR7S-3" value="" style="verticalLabelPosition=bottom;aspect=fixed;html=1;verticalAlign=top;strokeColor=none;shape=mxgraph.citrix.router;fillColor=#66B2FF;gradientColor=#0066CC;fontSize=14;" vertex="1" parent="1">
          <mxGeometry x="610" y="120" width="55" height="36.5" as="geometry" />
        </mxCell>
        <mxCell id="MVkLaRBLVFbIjyl2gR7S-5" value="" style="html=1;verticalLabelPosition=bottom;align=center;labelBackgroundColor=#ffffff;verticalAlign=top;strokeWidth=2;strokeColor=#999999;shadow=0;dashed=0;shape=mxgraph.ios7.icons.loud;" vertex="1" parent="1">
          <mxGeometry x="154.4" y="36.129999999999995" width="40.04" height="42.4" as="geometry" />
        </mxCell>
        <mxCell id="MVkLaRBLVFbIjyl2gR7S-6" value="" style="endArrow=none;html=1;rounded=0;" edge="1" parent="1" source="8rnjgaEv8BhWz-kio5fb-2" target="MVkLaRBLVFbIjyl2gR7S-3">
          <mxGeometry width="50" height="50" relative="1" as="geometry">
            <mxPoint x="700" y="630" as="sourcePoint" />
            <mxPoint x="750" y="580" as="targetPoint" />
          </mxGeometry>
        </mxCell>
        <mxCell id="MVkLaRBLVFbIjyl2gR7S-7" value="" style="endArrow=none;html=1;rounded=0;entryX=0.418;entryY=-0.027;entryDx=0;entryDy=0;entryPerimeter=0;" edge="1" parent="1" source="MVkLaRBLVFbIjyl2gR7S-1" target="MVkLaRBLVFbIjyl2gR7S-3">
          <mxGeometry width="50" height="50" relative="1" as="geometry">
            <mxPoint x="700" y="510" as="sourcePoint" />
            <mxPoint x="750" y="460" as="targetPoint" />
          </mxGeometry>
        </mxCell>
        <mxCell id="MVkLaRBLVFbIjyl2gR7S-8" value="" style="endArrow=none;html=1;rounded=0;exitX=0.745;exitY=0.082;exitDx=0;exitDy=0;exitPerimeter=0;" edge="1" parent="1" source="MVkLaRBLVFbIjyl2gR7S-3" target="MVkLaRBLVFbIjyl2gR7S-2">
          <mxGeometry width="50" height="50" relative="1" as="geometry">
            <mxPoint x="700" y="330" as="sourcePoint" />
            <mxPoint x="750" y="280" as="targetPoint" />
          </mxGeometry>
        </mxCell>
        <mxCell id="MVkLaRBLVFbIjyl2gR7S-10" value="" style="endArrow=none;html=1;rounded=0;" edge="1" parent="1" source="8rnjgaEv8BhWz-kio5fb-2">
          <mxGeometry width="50" height="50" relative="1" as="geometry">
            <mxPoint x="576.76" y="352.13" as="sourcePoint" />
            <mxPoint x="611.76" y="242.32693877551026" as="targetPoint" />
          </mxGeometry>
        </mxCell>
        <mxCell id="MVkLaRBLVFbIjyl2gR7S-11" value="" style="endArrow=none;html=1;rounded=0;" edge="1" parent="1" source="8rnjgaEv8BhWz-kio5fb-2">
          <mxGeometry width="50" height="50" relative="1" as="geometry">
            <mxPoint x="576.76" y="352.13" as="sourcePoint" />
            <mxPoint x="611.76" y="329.87795918367317" as="targetPoint" />
          </mxGeometry>
        </mxCell>
        <mxCell id="MVkLaRBLVFbIjyl2gR7S-12" value="" style="html=1;shadow=0;dashed=0;shape=mxgraph.bootstrap.rrect;rSize=5;strokeColor=none;html=1;whiteSpace=wrap;fillColor=#999999;fontColor=#ffffff;align=right;spacing=10;gradientColor=none;" vertex="1" parent="1">
          <mxGeometry x="477.5" y="-120" width="40" height="40" as="geometry" />
        </mxCell>
        <mxCell id="MVkLaRBLVFbIjyl2gR7S-13" value="" style="html=1;shadow=0;dashed=0;shape=ellipse;strokeColor=none;fillColor=#ffffff;" vertex="1" parent="MVkLaRBLVFbIjyl2gR7S-12">
          <mxGeometry x="0.5" y="0.5" width="20" height="20" relative="1" as="geometry">
            <mxPoint x="-10" y="-10" as="offset" />
          </mxGeometry>
        </mxCell>
        <mxCell id="MVkLaRBLVFbIjyl2gR7S-14" value="min" style="html=1;verticalLabelPosition=bottom;align=center;labelBackgroundColor=none;verticalAlign=top;strokeWidth=2;strokeColor=#999999;shadow=0;dashed=0;shape=mxgraph.ios7.icons.lightbulb;" vertex="1" parent="1">
          <mxGeometry x="477.5" y="-200" width="41.48" height="48.7" as="geometry" />
        </mxCell>
        <mxCell id="MVkLaRBLVFbIjyl2gR7S-21" value="" style="html=1;shadow=0;dashed=0;shape=mxgraph.bootstrap.rrect;rSize=5;strokeColor=none;html=1;whiteSpace=wrap;fillColor=#999999;fontColor=#ffffff;align=right;spacing=10;gradientColor=none;" vertex="1" parent="1">
          <mxGeometry x="527.5" y="-120" width="40" height="40" as="geometry" />
        </mxCell>
        <mxCell id="MVkLaRBLVFbIjyl2gR7S-22" value="" style="html=1;shadow=0;dashed=0;shape=ellipse;strokeColor=none;fillColor=#ffffff;" vertex="1" parent="MVkLaRBLVFbIjyl2gR7S-21">
          <mxGeometry x="0.5" y="0.5" width="20" height="20" relative="1" as="geometry">
            <mxPoint x="-10" y="-10" as="offset" />
          </mxGeometry>
        </mxCell>
        <mxCell id="MVkLaRBLVFbIjyl2gR7S-23" value="med" style="html=1;verticalLabelPosition=bottom;align=center;labelBackgroundColor=none;verticalAlign=top;strokeWidth=2;strokeColor=#999999;shadow=0;dashed=0;shape=mxgraph.ios7.icons.lightbulb;" vertex="1" parent="1">
          <mxGeometry x="527.5" y="-200" width="41.48" height="48.7" as="geometry" />
        </mxCell>
        <mxCell id="MVkLaRBLVFbIjyl2gR7S-24" value="" style="html=1;shadow=0;dashed=0;shape=mxgraph.bootstrap.rrect;rSize=5;strokeColor=none;html=1;whiteSpace=wrap;fillColor=#999999;fontColor=#ffffff;align=right;spacing=10;gradientColor=none;" vertex="1" parent="1">
          <mxGeometry x="576.02" y="-120" width="40" height="40" as="geometry" />
        </mxCell>
        <mxCell id="MVkLaRBLVFbIjyl2gR7S-25" value="" style="html=1;shadow=0;dashed=0;shape=ellipse;strokeColor=none;fillColor=#ffffff;" vertex="1" parent="MVkLaRBLVFbIjyl2gR7S-24">
          <mxGeometry x="0.5" y="0.5" width="20" height="20" relative="1" as="geometry">
            <mxPoint x="-10" y="-10" as="offset" />
          </mxGeometry>
        </mxCell>
        <mxCell id="MVkLaRBLVFbIjyl2gR7S-26" value="max" style="html=1;verticalLabelPosition=bottom;align=center;labelBackgroundColor=none;verticalAlign=top;strokeWidth=2;strokeColor=#999999;shadow=0;dashed=0;shape=mxgraph.ios7.icons.lightbulb;" vertex="1" parent="1">
          <mxGeometry x="576.02" y="-200" width="41.48" height="48.7" as="geometry" />
        </mxCell>
        <mxCell id="MVkLaRBLVFbIjyl2gR7S-32" value="" style="html=1;shadow=0;dashed=0;shape=mxgraph.bootstrap.rrect;rSize=5;strokeColor=none;html=1;whiteSpace=wrap;fillColor=#999999;fontColor=#ffffff;align=right;spacing=10;gradientColor=none;" vertex="1" parent="1">
          <mxGeometry x="682.5" y="-120" width="40" height="40" as="geometry" />
        </mxCell>
        <mxCell id="MVkLaRBLVFbIjyl2gR7S-33" value="" style="html=1;shadow=0;dashed=0;shape=ellipse;strokeColor=none;fillColor=#ffffff;" vertex="1" parent="MVkLaRBLVFbIjyl2gR7S-32">
          <mxGeometry x="0.5" y="0.5" width="20" height="20" relative="1" as="geometry">
            <mxPoint x="-10" y="-10" as="offset" />
          </mxGeometry>
        </mxCell>
        <mxCell id="MVkLaRBLVFbIjyl2gR7S-34" value="min" style="html=1;verticalLabelPosition=bottom;align=center;labelBackgroundColor=none;verticalAlign=top;strokeWidth=2;strokeColor=#999999;shadow=0;dashed=0;shape=mxgraph.ios7.icons.lightbulb;" vertex="1" parent="1">
          <mxGeometry x="682.5" y="-200" width="41.48" height="48.7" as="geometry" />
        </mxCell>
        <mxCell id="MVkLaRBLVFbIjyl2gR7S-35" value="" style="html=1;shadow=0;dashed=0;shape=mxgraph.bootstrap.rrect;rSize=5;strokeColor=none;html=1;whiteSpace=wrap;fillColor=#999999;fontColor=#ffffff;align=right;spacing=10;gradientColor=none;" vertex="1" parent="1">
          <mxGeometry x="732.5" y="-120" width="40" height="40" as="geometry" />
        </mxCell>
        <mxCell id="MVkLaRBLVFbIjyl2gR7S-36" value="" style="html=1;shadow=0;dashed=0;shape=ellipse;strokeColor=none;fillColor=#ffffff;" vertex="1" parent="MVkLaRBLVFbIjyl2gR7S-35">
          <mxGeometry x="0.5" y="0.5" width="20" height="20" relative="1" as="geometry">
            <mxPoint x="-10" y="-10" as="offset" />
          </mxGeometry>
        </mxCell>
        <mxCell id="MVkLaRBLVFbIjyl2gR7S-37" value="med" style="html=1;verticalLabelPosition=bottom;align=center;labelBackgroundColor=none;verticalAlign=top;strokeWidth=2;strokeColor=#999999;shadow=0;dashed=0;shape=mxgraph.ios7.icons.lightbulb;" vertex="1" parent="1">
          <mxGeometry x="732.5" y="-200" width="41.48" height="48.7" as="geometry" />
        </mxCell>
        <mxCell id="MVkLaRBLVFbIjyl2gR7S-38" value="" style="html=1;shadow=0;dashed=0;shape=mxgraph.bootstrap.rrect;rSize=5;strokeColor=none;html=1;whiteSpace=wrap;fillColor=#999999;fontColor=#ffffff;align=right;spacing=10;gradientColor=none;" vertex="1" parent="1">
          <mxGeometry x="781.02" y="-120" width="40" height="40" as="geometry" />
        </mxCell>
        <mxCell id="MVkLaRBLVFbIjyl2gR7S-39" value="" style="html=1;shadow=0;dashed=0;shape=ellipse;strokeColor=none;fillColor=#ffffff;" vertex="1" parent="MVkLaRBLVFbIjyl2gR7S-38">
          <mxGeometry x="0.5" y="0.5" width="20" height="20" relative="1" as="geometry">
            <mxPoint x="-10" y="-10" as="offset" />
          </mxGeometry>
        </mxCell>
        <mxCell id="MVkLaRBLVFbIjyl2gR7S-40" value="max" style="html=1;verticalLabelPosition=bottom;align=center;labelBackgroundColor=none;verticalAlign=top;strokeWidth=2;strokeColor=#999999;shadow=0;dashed=0;shape=mxgraph.ios7.icons.lightbulb;" vertex="1" parent="1">
          <mxGeometry x="781.02" y="-200" width="41.48" height="48.7" as="geometry" />
        </mxCell>
        <mxCell id="MVkLaRBLVFbIjyl2gR7S-44" style="edgeStyle=orthogonalEdgeStyle;rounded=0;orthogonalLoop=1;jettySize=auto;html=1;entryX=0.495;entryY=1.054;entryDx=0;entryDy=0;entryPerimeter=0;endArrow=none;endFill=0;" edge="1" parent="1" source="MVkLaRBLVFbIjyl2gR7S-2" target="MVkLaRBLVFbIjyl2gR7S-38">
          <mxGeometry relative="1" as="geometry" />
        </mxCell>
        <mxCell id="MVkLaRBLVFbIjyl2gR7S-45" value="ESP32&lt;br&gt;Remote Status Station" style="verticalLabelPosition=bottom;sketch=0;aspect=fixed;html=1;verticalAlign=top;strokeColor=none;align=center;outlineConnect=0;shape=mxgraph.citrix.tower_server;" vertex="1" parent="1">
          <mxGeometry x="290" y="94" width="65" height="85" as="geometry" />
        </mxCell>
        <mxCell id="MVkLaRBLVFbIjyl2gR7S-46" value="" style="endArrow=none;html=1;rounded=0;" edge="1" parent="1" source="MVkLaRBLVFbIjyl2gR7S-45" target="MVkLaRBLVFbIjyl2gR7S-3">
          <mxGeometry width="50" height="50" relative="1" as="geometry">
            <mxPoint x="440" y="400" as="sourcePoint" />
            <mxPoint x="490" y="350" as="targetPoint" />
          </mxGeometry>
        </mxCell>
        <mxCell id="MVkLaRBLVFbIjyl2gR7S-47" value="" style="html=1;shadow=0;dashed=0;shape=mxgraph.bootstrap.rrect;rSize=5;strokeColor=none;html=1;whiteSpace=wrap;fillColor=#999999;fontColor=#ffffff;align=right;spacing=10;gradientColor=none;" vertex="1" parent="1">
          <mxGeometry x="100" y="37.33" width="40" height="40" as="geometry" />
        </mxCell>
        <mxCell id="MVkLaRBLVFbIjyl2gR7S-48" value="" style="html=1;shadow=0;dashed=0;shape=ellipse;strokeColor=none;fillColor=#ffffff;" vertex="1" parent="MVkLaRBLVFbIjyl2gR7S-47">
          <mxGeometry x="0.5" y="0.5" width="20" height="20" relative="1" as="geometry">
            <mxPoint x="-10" y="-10" as="offset" />
          </mxGeometry>
        </mxCell>
        <mxCell id="MVkLaRBLVFbIjyl2gR7S-49" value="alarm" style="html=1;verticalLabelPosition=bottom;align=center;labelBackgroundColor=none;verticalAlign=top;strokeWidth=2;strokeColor=#999999;shadow=0;dashed=0;shape=mxgraph.ios7.icons.lightbulb;" vertex="1" parent="1">
          <mxGeometry x="208.07" y="37.33" width="34.07" height="40" as="geometry" />
        </mxCell>
        <mxCell id="MVkLaRBLVFbIjyl2gR7S-50" value="pump 2" style="html=1;verticalLabelPosition=bottom;align=center;labelBackgroundColor=none;verticalAlign=top;strokeWidth=2;strokeColor=#999999;shadow=0;dashed=0;shape=mxgraph.ios7.icons.lightbulb;" vertex="1" parent="1">
          <mxGeometry x="208.07" y="110.38" width="34.07" height="40" as="geometry" />
        </mxCell>
        <mxCell id="MVkLaRBLVFbIjyl2gR7S-51" value="max" style="html=1;verticalLabelPosition=bottom;align=center;labelBackgroundColor=none;verticalAlign=top;strokeWidth=2;strokeColor=#999999;shadow=0;dashed=0;shape=mxgraph.ios7.icons.lightbulb;" vertex="1" parent="1">
          <mxGeometry x="208.07" y="190.38" width="34.07" height="40" as="geometry" />
        </mxCell>
        <mxCell id="MVkLaRBLVFbIjyl2gR7S-52" value="med" style="html=1;verticalLabelPosition=bottom;align=center;labelBackgroundColor=none;verticalAlign=top;strokeWidth=2;strokeColor=#999999;shadow=0;dashed=0;shape=mxgraph.ios7.icons.lightbulb;" vertex="1" parent="1">
          <mxGeometry x="160.37" y="190.38" width="34.07" height="40" as="geometry" />
        </mxCell>
        <mxCell id="MVkLaRBLVFbIjyl2gR7S-53" value="level min" style="html=1;verticalLabelPosition=bottom;align=center;labelBackgroundColor=none;verticalAlign=top;strokeWidth=2;strokeColor=#999999;shadow=0;dashed=0;shape=mxgraph.ios7.icons.lightbulb;" vertex="1" parent="1">
          <mxGeometry x="110" y="190.38" width="34.07" height="40" as="geometry" />
        </mxCell>
        <mxCell id="MVkLaRBLVFbIjyl2gR7S-54" value="" style="endArrow=none;html=1;rounded=0;" edge="1" parent="1" source="6a7d8f32e03d9370-15" target="MVkLaRBLVFbIjyl2gR7S-3">
          <mxGeometry width="50" height="50" relative="1" as="geometry">
            <mxPoint x="440" y="290" as="sourcePoint" />
            <mxPoint x="620" y="150" as="targetPoint" />
          </mxGeometry>
        </mxCell>
        <mxCell id="MVkLaRBLVFbIjyl2gR7S-55" value="Pump 1 status" style="html=1;verticalLabelPosition=bottom;align=center;labelBackgroundColor=none;verticalAlign=top;strokeWidth=2;strokeColor=#999999;shadow=0;dashed=0;shape=mxgraph.ios7.icons.lightbulb;" vertex="1" parent="1">
          <mxGeometry x="616.3" y="212.13" width="41.48" height="48.7" as="geometry" />
        </mxCell>
        <mxCell id="MVkLaRBLVFbIjyl2gR7S-56" value="Pump 2 status" style="html=1;verticalLabelPosition=bottom;align=center;labelBackgroundColor=none;verticalAlign=top;strokeWidth=2;strokeColor=#999999;shadow=0;dashed=0;shape=mxgraph.ios7.icons.lightbulb;" vertex="1" parent="1">
          <mxGeometry x="616.3" y="312.13" width="41.48" height="48.7" as="geometry" />
        </mxCell>
        <mxCell id="MVkLaRBLVFbIjyl2gR7S-57" value="pump 1" style="html=1;verticalLabelPosition=bottom;align=center;labelBackgroundColor=none;verticalAlign=top;strokeWidth=2;strokeColor=#999999;shadow=0;dashed=0;shape=mxgraph.ios7.icons.lightbulb;" vertex="1" parent="1">
          <mxGeometry x="157.38" y="110.38" width="34.07" height="40" as="geometry" />
        </mxCell>
        <mxCell id="MVkLaRBLVFbIjyl2gR7S-60" value="" style="endArrow=none;html=1;rounded=0;" edge="1" parent="1" source="MVkLaRBLVFbIjyl2gR7S-3" target="6a7d8f32e03d9370-2">
          <mxGeometry width="50" height="50" relative="1" as="geometry">
            <mxPoint x="440" y="130" as="sourcePoint" />
            <mxPoint x="910" y="20" as="targetPoint" />
          </mxGeometry>
        </mxCell>
      </root>
    </mxGraphModel>
  </diagram>
</mxfile>
